<svg xmlns="http://www.w3.org/2000/svg" width="16" height="16" viewBox="0 0 16 16"><g><g><path fill="#f5a623" d="M5.24.667h5.52c.177 0 .346.07.471.195l3.907 3.907a.667.667 0 0 1 .195.471v5.52c0 .177-.07.346-.195.471l-3.907 3.907a.667.667 0 0 1-.471.195H5.24a.667.667 0 0 1-.471-.195L.862 11.231a.667.667 0 0 1-.195-.471V5.24c0-.177.07-.346.195-.471L4.769.862A.667.667 0 0 1 5.24.667zM5.516 2L2 5.516v4.968L5.516 14h4.968L14 10.484V5.516L10.484 2zM8 4.667c.368 0 .667.298.667.666V8a.667.667 0 0 1-1.334 0V5.333c0-.368.299-.666.667-.666zm-.471 4.862a.667.667 0 1 1 .942.942.667.667 0 0 1-.942-.942z"/></g></g></svg>