<svg xmlns="http://www.w3.org/2000/svg" width="21" height="24" viewBox="0 0 21 24"><g><g><path fill="#0b0b0a" d="M18.95 20.518c-1.006 1.543-2.424 3.463-4.183 3.478-1.561.017-1.964-1.024-4.083-1.01-2.12.01-2.562 1.03-4.126 1.014-1.757-.016-3.101-1.749-4.107-3.291-2.814-4.31-3.11-9.369-1.375-12.06 1.235-1.91 3.182-3.028 5.011-3.028 1.861 0 3.033 1.027 4.574 1.027 1.496 0 2.406-1.03 4.56-1.03 1.63 0 3.356.893 4.585 2.434-4.029 2.221-3.377 8.009.694 9.557-.56 1.247-.829 1.805-1.55 2.91zM13.587 3.896c-.837 1.084-2.28 1.922-3.679 1.879-.255-1.396.398-2.834 1.194-3.8C11.974.906 13.47.088 14.749 0c.214 1.458-.379 2.886-1.162 3.896z"/></g></g></svg>