<svg width="25" height="25" viewBox="0 0 25 25" fill="none" xmlns="http://www.w3.org/2000/svg">
<path d="M1.43314 4.25762C1.76188 2.85616 2.85616 1.76188 4.25762 1.43314V1.43314C5.47217 1.14825 6.73617 1.14825 7.95071 1.43314V1.43314C9.35218 1.76188 10.4465 2.85616 10.7752 4.25762V4.25762C11.0601 5.47217 11.0601 6.73616 10.7752 7.95071V7.95071C10.4465 9.35218 9.35218 10.4465 7.95071 10.7752V10.7752C6.73617 11.0601 5.47217 11.0601 4.25762 10.7752V10.7752C2.85616 10.4465 1.76188 9.35218 1.43314 7.95071V7.95071C1.14825 6.73617 1.14825 5.47217 1.43314 4.25762V4.25762Z" stroke="#363853" stroke-width="1.5"/>
<path d="M1.43314 17.466C1.76188 16.0645 2.85616 14.9703 4.25762 14.6415V14.6415C5.47217 14.3566 6.73617 14.3566 7.95071 14.6415V14.6415C9.35218 14.9703 10.4465 16.0645 10.7752 17.466V17.466C11.0601 18.6805 11.0601 19.9445 10.7752 21.1591V21.1591C10.4465 22.5606 9.35218 23.6548 7.95071 23.9836V23.9836C6.73617 24.2685 5.47217 24.2685 4.25762 23.9836V23.9836C2.85616 23.6548 1.76188 22.5606 1.43314 21.1591V21.1591C1.14825 19.9445 1.14825 18.6805 1.43314 17.466V17.466Z" stroke="#363853" stroke-width="1.5"/>
<path d="M14.6415 4.25762C14.9702 2.85615 16.0645 1.76188 17.466 1.43314V1.43314C18.6805 1.14825 19.9445 1.14825 21.1591 1.43314V1.43314C22.5605 1.76188 23.6548 2.85616 23.9835 4.25762V4.25762C24.2684 5.47217 24.2684 6.73616 23.9835 7.95071V7.95071C23.6548 9.35218 22.5605 10.4465 21.1591 10.7752V10.7752C19.9445 11.0601 18.6805 11.0601 17.466 10.7752V10.7752C16.0645 10.4465 14.9702 9.35218 14.6415 7.95071V7.95071C14.3566 6.73617 14.3566 5.47217 14.6415 4.25762V4.25762Z" stroke="#363853" stroke-width="1.5"/>
<path d="M14.6415 17.466C14.9702 16.0645 16.0645 14.9703 17.466 14.6415V14.6415C18.6805 14.3566 19.9445 14.3566 21.1591 14.6415V14.6415C22.5605 14.9703 23.6548 16.0645 23.9835 17.466V17.466C24.2684 18.6805 24.2684 19.9445 23.9835 21.1591V21.1591C23.6548 22.5606 22.5605 23.6548 21.1591 23.9836V23.9836C19.9445 24.2685 18.6805 24.2685 17.466 23.9836V23.9836C16.0645 23.6548 14.9702 22.5606 14.6415 21.1591V21.1591C14.3566 19.9445 14.3566 18.6805 14.6415 17.466V17.466Z" stroke="#363853" stroke-width="1.5"/>
</svg>
