<svg id="Icons_Messages" data-name="Icons / Messages" xmlns="http://www.w3.org/2000/svg" width="18" height="18" viewBox="0 0 18 18">
  <path id="_Icon_Color" data-name="🔹 Icon Color" d="M8.25,11.25A8.8,8.8,0,0,1,3.205,9.672,8.877,8.877,0,0,1,0,5.625a8.864,8.864,0,0,1,16.5,0,8.877,8.877,0,0,1-3.205,4.047A8.8,8.8,0,0,1,8.25,11.25Zm0-9.375A3.75,3.75,0,1,0,12,5.625,3.754,3.754,0,0,0,8.25,1.875Zm0,6a2.25,2.25,0,1,1,2.25-2.25A2.253,2.253,0,0,1,8.25,7.875Z" transform="translate(0.75 3.75)" fill="#fff"/>
</svg>
