<svg xmlns="http://www.w3.org/2000/svg" width="22" height="22" viewBox="0 0 22 22"><g><g><g><path fill="#ea4335" d="M10.997 4.253c2.065 0 3.459.893 4.253 1.638l3.104-3.031C16.448 1.088 13.967 0 10.997 0 6.694 0 2.979 2.469 1.17 6.062l3.557 2.762c.892-2.652 3.36-4.57 6.27-4.57z"/></g><g><path fill="#4285f4" d="M21.56 11.249c0-.905-.073-1.565-.232-2.249H11v4.082h6.062c-.122 1.015-.782 2.542-2.249 3.57l3.471 2.688c2.078-1.919 3.276-4.742 3.276-8.091z"/></g><g><path fill="#fbbc05" d="M4.742 13.173a6.772 6.772 0 0 1-.366-2.175c0-.758.134-1.491.354-2.176L1.173 6.06A11.01 11.01 0 0 0 0 10.998c0 1.772.428 3.446 1.173 4.938l3.57-2.763z"/></g><g><path fill="#34a853" d="M11.004 22.004c2.97 0 5.464-.977 7.285-2.664l-3.471-2.689c-.93.648-2.176 1.1-3.814 1.1-2.908 0-5.377-1.919-6.257-4.571L1.19 15.942c1.809 3.594 5.512 6.062 9.814 6.062z"/></g><g/></g></g></svg>