<svg width="16" height="16" viewBox="0 0 16 16" fill="none" xmlns="http://www.w3.org/2000/svg">
<path fill-rule="evenodd" clip-rule="evenodd" d="M2.66667 2H13.3333C14.4311 2 15.3271 2.89228 15.3333 3.98859C15.3334 3.99509 15.3334 4.00158 15.3333 4.00806V12C15.3333 13.1015 14.4349 14 13.3333 14H2.66667C1.56515 14 0.666672 13.1015 0.666672 12V4.00823M2.07105 3.70264L8 7.85291L13.929 3.70264C13.8187 3.48462 13.592 3.33333 13.3333 3.33333H2.66667C2.40803 3.33333 2.1813 3.48462 2.07105 3.70264ZM2.66667 2C1.56902 2 0.672993 2.89217 0.666705 3.98839L2.66667 2ZM2.00001 5.28045V12C2.00001 12.3651 2.30153 12.6667 2.66667 12.6667H13.3333C13.6985 12.6667 14 12.3651 14 12V5.28045L8.38231 9.21283C8.15277 9.37352 7.84724 9.37352 7.6177 9.21283L2.00001 5.28045Z" fill="black"/>
<mask id="mask0" mask-type="alpha" maskUnits="userSpaceOnUse" x="0" y="2" width="16" height="12">
<path fill-rule="evenodd" clip-rule="evenodd" d="M2.66667 2H13.3333C14.4311 2 15.3271 2.89228 15.3333 3.98859C15.3334 3.99509 15.3334 4.00158 15.3333 4.00806V12C15.3333 13.1015 14.4349 14 13.3333 14H2.66667C1.56515 14 0.666672 13.1015 0.666672 12V4.00823M2.07105 3.70264L8 7.85291L13.929 3.70264C13.8187 3.48462 13.592 3.33333 13.3333 3.33333H2.66667C2.40803 3.33333 2.1813 3.48462 2.07105 3.70264ZM2.66667 2C1.56902 2 0.672993 2.89217 0.666705 3.98839L2.66667 2ZM2.00001 5.28045V12C2.00001 12.3651 2.30153 12.6667 2.66667 12.6667H13.3333C13.6985 12.6667 14 12.3651 14 12V5.28045L8.38231 9.21283C8.15277 9.37352 7.84724 9.37352 7.6177 9.21283L2.00001 5.28045Z" fill="white"/>
</mask>
<g mask="url(#mask0)">
<rect width="16" height="16" rx="4" fill="#8D9AAF"/>
</g>
</svg>
