<svg xmlns="http://www.w3.org/2000/svg" width="200" height="56" viewBox="0 0 200 56"><g><g ><g><g ><path fill="#fff" d="M81.593 38.755l-8.926-.925 1.055-9.94 9.042.938c1.564.18 2.778.518 3.608 1.004 1.54.898 2.216 2.342 2.01 4.277-.24 2.273-1.25 3.75-2.995 4.389-.94.335-2.217.421-3.795.257zm-7.981-24.443l8.024.798c1.727.172 3.152.504 4.24.992 1.346.717 1.925 1.964 1.746 3.723-.16 1.576-.807 2.648-1.922 3.178-1.06.5-2.41.678-4.003.52l-8.931-.888zm20.395 14.492c-.895-1.362-2.23-2.371-3.99-3.003l-.628-.224.598-.299c1.156-.585 2.046-1.24 2.638-1.946 1.052-1.25 1.586-2.939 1.586-5.017 0-2.02-.534-3.777-1.586-5.224-1.754-2.36-4.793-3.582-9.04-3.645H66.6V44.21h15.824c1.79 0 3.468-.16 4.996-.476 1.498-.31 2.817-.89 3.92-1.723a9.578 9.578 0 0 0 2.464-2.698c1.028-1.613 1.545-3.455 1.545-5.488 0-1.963-.452-3.65-1.342-5.022z"/></g><g ><path fill="#fff" d="M98.133 18.65h6.425v25.557h-6.425zm6.425-9.426c0 3.167-2.598 5.735-5.803 5.735h-.622V9.224z"/></g><g ><path fill="#fff" d="M128.7 31.87c-1.33-1.251-3.37-2.204-6.06-2.824-4.193-.913-6.58-1.538-7.29-1.923-.778-.402-1.173-1.062-1.173-1.952 0-.717.366-1.343 1.08-1.866.698-.505 1.807-.752 3.393-.752 1.917 0 3.306.506 4.12 1.499.4.505.66 1.171.783 1.98h6.338c-.343-2.922-1.493-5.017-3.422-6.217-2.022-1.268-4.693-1.911-7.923-1.911-3.398 0-6.06.85-7.918 2.525-1.847 1.671-2.782 3.691-2.782 6.011 0 1.952.587 3.462 1.748 4.484 1.185 1.067 3.282 1.974 6.228 2.692 4.24.993 6.633 1.676 7.313 2.095.737.453 1.11 1.125 1.11 1.998 0 .913-.46 1.601-1.366 2.055-.842.414-1.98.626-3.387.626-2.428 0-4.06-.477-4.99-1.458-.499-.523-.825-1.344-.993-2.497h-6.459c.07 2.462 1.033 4.523 2.875 6.13 1.923 1.677 4.96 2.527 9.033 2.527 3.991 0 6.977-.804 8.864-2.389 1.877-1.573 2.83-3.634 2.83-6.125 0-1.871-.657-3.456-1.952-4.707"/></g><g ><path fill="#fff" d="M149.292 18.653l-5.67 20.023-6-20.023h-7.064l9.585 26.895c.052.224.035.575-.453 1.785-.377.925-.778 1.528-1.237 1.832-.454.316-1.017.516-1.68.603-.632.08-1.3.103-1.992.074l-.57-.034v4.897c.605.034 1.07.057 1.395.063.372.012.86.012 1.476.012 2.956 0 4.937-.564 5.895-1.683.994-1.16 2.376-4.23 4.108-9.127l8.928-25.317h-6.72"/></g><g ><path fill="#fff" d="M172.034 39.373c-.819.373-1.754.562-2.81.562-2.104 0-3.754-.751-4.898-2.245-1.127-1.463-1.696-3.559-1.696-6.228 0-2.669.57-4.765 1.696-6.217 1.144-1.481 2.794-2.233 4.897-2.233 2.109 0 3.753.752 4.891 2.233 1.115 1.452 1.684 3.548 1.684 6.217 0 2.67-.569 4.765-1.684 6.228a5.517 5.517 0 0 1-2.08 1.683zm7.151-17.532c-2.16-2.676-5.507-4.036-9.933-4.036-4.432 0-7.779 1.36-9.94 4.036-2.178 2.698-3.287 5.936-3.287 9.621 0 3.743 1.11 6.992 3.288 9.65 2.16 2.641 5.507 3.979 9.939 3.979 4.426 0 7.772-1.338 9.939-3.979a13.961 13.961 0 0 0 2.457-4.415c.552-1.612.825-3.364.825-5.235 0-3.685-1.104-6.923-3.288-9.621z"/></g><g ><path fill="#fff" d="M199.23 18.039a4.278 4.278 0 0 0-.302-.012c-1.992 0-3.6.518-4.969 1.36-1.96 1.209-3.157 3.426-3.157 3.426v-4.16h-6.019V44.21h6.385V32.006c0-2.165.273-3.726.83-4.788 1.005-1.883 2.975-2.836 5.862-2.836.215 0 .493.006.843.023.255.012.54.035.859.064v-6.407l-.331-.023"/></g><g ><g><path fill="#fff" d="M29.125 4.024c0-2.222-1.823-4.024-4.07-4.024-2.25 0-4.072 1.802-4.072 4.024v4.023h4.071c2.249 0 4.071-1.801 4.071-4.023"/></g><g><path fill="#fff" d="M14.168 21.52c3.765 0 6.817-3.016 6.817-6.737V8.046h-6.817c-3.766 0-6.818 3.016-6.818 6.737 0 3.72 3.052 6.737 6.818 6.737"/></g><g><path fill="#fff" d="M23.183 49.408c0 2.222 1.823 4.023 4.071 4.023 2.248 0 4.071-1.8 4.071-4.023v-4.023h-4.07c-2.25 0-4.072 1.802-4.072 4.023"/></g><g><path fill="#fff" d="M38.143 31.912c-3.766 0-6.818 3.016-6.818 6.737v6.737h6.818c3.765 0 6.818-3.015 6.818-6.737 0-3.72-3.053-6.737-6.818-6.737"/></g><g><path fill="#fff" d="M4.07 24.648C1.823 24.648 0 26.45 0 28.671c0 2.222 1.823 4.024 4.07 4.024h4.072V28.67c0-2.222-1.823-4.023-4.071-4.023"/></g><g><path fill="#fff" d="M21.777 39.431c0-3.721-3.052-6.737-6.818-6.737H8.142v6.737c0 3.721 3.052 6.738 6.817 6.738 3.766 0 6.819-3.017 6.819-6.738"/></g><g><path fill="#fff" d="M48.238 28.782c2.249 0 4.071-1.8 4.071-4.023 0-2.221-1.822-4.023-4.07-4.023h-4.072v4.023c0 2.222 1.822 4.023 4.071 4.023"/></g><g><path fill="#fff" d="M30.533 14v.002c0 3.72 3.053 6.737 6.818 6.737h6.817V14c0-3.72-3.052-6.737-6.817-6.737S30.533 10.28 30.533 14"/></g></g></g></g></g></svg>