<svg id="logo_2" xmlns="http://www.w3.org/2000/svg" width="141" height="39.95" viewBox="0 0 141 39.95">
  <g id="logo_2-2" data-name="logo_2" transform="translate(0 0)">
    <path id="Fill_30" data-name="Fill 30" d="M11.156,24.8H0V0H11.975c2.994.045,5.138.92,6.372,2.6a6.247,6.247,0,0,1,1.118,3.727,5.447,5.447,0,0,1-1.118,3.579,5.869,5.869,0,0,1-1.86,1.388l-.421.213.442.16a5.465,5.465,0,0,1,2.813,2.142,6.533,6.533,0,0,1,.946,3.583,7.225,7.225,0,0,1-1.089,3.915,6.762,6.762,0,0,1-4.5,3.153A17.285,17.285,0,0,1,11.156,24.8ZM5.022,13.157l-.744,7.092,6.293.66a9.842,9.842,0,0,0,1.025.058,4.927,4.927,0,0,0,1.65-.241,3.378,3.378,0,0,0,2.111-3.131,2.905,2.905,0,0,0-1.417-3.052,6.613,6.613,0,0,0-2.544-.716l-6.374-.669ZM4.944,3.472l-.6,5.937,6.3.633a7.7,7.7,0,0,0,.771.04,4.748,4.748,0,0,0,2.053-.411A2.582,2.582,0,0,0,14.826,7.4,2.459,2.459,0,0,0,13.6,4.749,9.722,9.722,0,0,0,10.6,4.041l-5.66-.569Z" transform="translate(46.954 6.737)" fill="#363734"/>
    <path id="Fill_31" data-name="Fill 31" d="M4.53,24.957H0V6.725H4.53V24.956ZM.438,4.091H0V0H4.53A4.1,4.1,0,0,1,.438,4.091Z" transform="translate(69.185 6.581)" fill="#363734"/>
    <path id="Fill_32" data-name="Fill 32" d="M15.263,9.964a9.158,9.158,0,0,0-4.272-2.015A30.765,30.765,0,0,1,5.852,6.577a1.468,1.468,0,0,1-.827-1.392,1.639,1.639,0,0,1,.761-1.331,4.088,4.088,0,0,1,2.392-.536,3.551,3.551,0,0,1,2.9,1.069A2.967,2.967,0,0,1,11.635,5.8H16.1a5.677,5.677,0,0,0-2.412-4.436A10.335,10.335,0,0,0,8.1,0,8.018,8.018,0,0,0,2.523,1.8,5.639,5.639,0,0,0,.561,6.09a4.076,4.076,0,0,0,1.233,3.2,10.405,10.405,0,0,0,4.39,1.921A27.657,27.657,0,0,1,11.34,12.7a1.64,1.64,0,0,1-.18,2.892,5.43,5.43,0,0,1-2.388.446c-1.712,0-2.863-.34-3.518-1.04a3.217,3.217,0,0,1-.7-1.781H0a5.833,5.833,0,0,0,2.027,4.374c1.356,1.2,3.5,1.8,6.368,1.8,2.814,0,4.919-.573,6.249-1.7a5.489,5.489,0,0,0,1.995-4.37,4.526,4.526,0,0,0-1.376-3.358" transform="translate(75.467 12.773)" fill="#363734"/>
    <path id="Fill_33" data-name="Fill 33" d="M13.208,0l-4,14.284L4.98,0H0L6.757,19.187c.036.16.024.41-.32,1.274a2.786,2.786,0,0,1-.872,1.307,2.619,2.619,0,0,1-1.184.43,8.279,8.279,0,0,1-1.4.053l-.4-.025v3.493c.426.025.754.041.983.045.262.008.606.008,1.04.008,2.084,0,3.481-.4,4.157-1.2.7-.827,1.675-3.018,2.9-6.511L17.946,0H13.208" transform="translate(92.045 13.306)" fill="#363734"/>
    <path id="Fill_34" data-name="Fill 34" d="M9.325,19.465c-3.127,0-5.485-.955-7.008-2.838A10.642,10.642,0,0,1,0,9.743,10.721,10.721,0,0,1,2.318,2.88C3.842.969,6.2,0,9.325,0s5.478.969,7,2.88a10.7,10.7,0,0,1,2.318,6.864,11.641,11.641,0,0,1-.582,3.735,10.013,10.013,0,0,1-1.732,3.15C14.805,18.511,12.448,19.465,9.325,19.465ZM9.3,3.715A4.1,4.1,0,0,0,5.852,5.308a7.194,7.194,0,0,0-1.2,4.435,7.241,7.241,0,0,0,1.2,4.443,4.091,4.091,0,0,0,3.453,1.6,4.711,4.711,0,0,0,1.982-.4,3.917,3.917,0,0,0,1.466-1.2A7.291,7.291,0,0,0,13.94,9.743a7.244,7.244,0,0,0-1.187-4.435A4.089,4.089,0,0,0,9.3,3.715Z" transform="translate(109.999 12.704)" fill="#363734"/>
    <path id="Fill_35" data-name="Fill 35" d="M10.185.008C10.128,0,10.054,0,9.972,0a6.435,6.435,0,0,0-3.5.971A7.311,7.311,0,0,0,4.243,3.415V.446H0V18.679H4.5V9.972a7.612,7.612,0,0,1,.586-3.415c.709-1.344,2.1-2.023,4.132-2.023.152,0,.348,0,.594.016.18.008.381.025.606.045V.025C10.3.016,10.227.012,10.185.008" transform="translate(130.271 12.859)" fill="#363734"/>
    <g id="Group">
      <path id="Fill_36" data-name="Fill 36" d="M5.74,2.871h0a2.87,2.87,0,1,0-5.74,0V5.74H2.87a2.87,2.87,0,0,0,2.87-2.87" transform="translate(14.793)" fill="#235c8b"/>
      <path id="Fill_37" data-name="Fill 37" d="M4.806,9.613h0A4.807,4.807,0,0,0,9.613,4.806V0H4.806a4.806,4.806,0,0,0,0,9.613" transform="translate(5.181 5.74)" fill="#235c8b"/>
      <path id="Fill_38" data-name="Fill 38" d="M0,2.871H0a2.87,2.87,0,0,0,5.74,0V0H2.87A2.87,2.87,0,0,0,0,2.871" transform="translate(16.345 32.379)" fill="#f0bf29"/>
      <path id="Fill_39" data-name="Fill 39" d="M4.807,0h0A4.807,4.807,0,0,0,0,4.806V9.613H4.807A4.806,4.806,0,0,0,4.807,0" transform="translate(22.085 22.766)" fill="#f0bf29"/>
      <path id="Fill_40" data-name="Fill 40" d="M2.87,0h0a2.87,2.87,0,0,0,0,5.74H5.74V2.87A2.87,2.87,0,0,0,2.87,0" transform="translate(0 17.586)" fill="#47a6c8"/>
      <path id="Fill_41" data-name="Fill 41" d="M9.613,4.806h0A4.806,4.806,0,0,0,4.806,0H0V4.806a4.807,4.807,0,0,0,9.613,0" transform="translate(5.74 23.326)" fill="#47a6c8"/>
      <path id="Fill_42" data-name="Fill 42" d="M2.871,5.74h0a2.87,2.87,0,0,0,0-5.74H0V2.87A2.87,2.87,0,0,0,2.871,5.74" transform="translate(31.138 14.794)" fill="#df7961"/>
      <path id="Fill_43" data-name="Fill 43" d="M0,4.806H0A4.807,4.807,0,0,0,4.806,9.613H9.613V4.806A4.806,4.806,0,0,0,0,4.806" transform="translate(21.525 5.181)" fill="#df7961"/>
    </g>
  </g>
</svg>
