<svg xmlns="http://www.w3.org/2000/svg" width="16" height="16" viewBox="0 0 16 16"><g><g><path fill="#fff" d="M5.4 11.4V11a.6.6 0 0 1 1.2 0v1a.6.6 0 0 1-.6.6H4a.6.6 0 0 1-.6-.6v-1a.6.6 0 0 1 1.2 0v.4zm3.2-.467V14.4h2.8v-3.467zm3.8-9.266a.067.067 0 0 0-.067-.067H3.667a.067.067 0 0 0-.067.067V2.4h8.8zm.85 6.483a1.15 1.15 0 0 0 1.147-1.062l-1.148-3.442a.067.067 0 0 0-.063-.046H2.814a.067.067 0 0 0-.063.046L1.603 7.088A1.15 1.15 0 0 0 3.9 7a.6.6 0 0 1 1.2 0 1.15 1.15 0 1 0 2.3 0 .6.6 0 0 1 1.2 0 1.15 1.15 0 1 0 2.3 0 .6.6 0 0 1 1.2 0c0 .635.515 1.15 1.15 1.15zM.4 7l.03-.19 1.182-3.544c.127-.38.423-.67.788-.797v-.802C2.4.967 2.967.4 3.667.4h8.666c.7 0 1.267.567 1.267 1.267v.802c.365.127.66.416.788.797l1.181 3.544.031.19c0 .795-.395 1.499-1 1.924v5.41c0 .699-.567 1.266-1.267 1.266H2.667c-.7 0-1.267-.567-1.267-1.267v-5.41A2.347 2.347 0 0 1 .4 7zm5.85 2.35c-.695 0-1.32-.302-1.75-.782a2.344 2.344 0 0 1-1.9.777v4.988c0 .037.03.067.067.067H7.4v-4.067a.6.6 0 0 1 .6-.6h4a.6.6 0 0 1 .6.6V14.4h.733c.037 0 .067-.03.067-.067V9.345a2.344 2.344 0 0 1-1.9-.777c-.43.48-1.055.782-1.75.782-.695 0-1.32-.302-1.75-.782-.43.48-1.055.782-1.75.782z"/></g></g></svg>