<svg id="Mastercard_Color" xmlns="http://www.w3.org/2000/svg" width="35.962" height="22.284" viewBox="0 0 35.962 22.284">
  <g id="g3110">
    <path id="path2997" d="M22.242,11.142A11.121,11.121,0,1,1,11.121,0,11.132,11.132,0,0,1,22.242,11.142Z" transform="translate(13.72 0)" fill="#f79f1a"/>
    <path id="path2995" d="M22.242,11.142A11.121,11.121,0,1,1,11.121,0,11.132,11.132,0,0,1,22.242,11.142Z" transform="translate(0 0)" fill="#ea001b"/>
    <path id="path2999" d="M4.26,0a11.159,11.159,0,0,0,0,17.543A11.132,11.132,0,0,0,8.521,8.77,11.127,11.127,0,0,0,4.26,0Z" transform="translate(13.72 2.371)" fill="#ff5f01"/>
  </g>
</svg>
