<?xml version="1.0"?>
<svg xmlns="http://www.w3.org/2000/svg" xmlns:xlink="http://www.w3.org/1999/xlink" xmlns:svgjs="http://svgjs.com/svgjs" version="1.1" width="512" height="512" x="0" y="0" viewBox="0 0 500 500" style="enable-background:new 0 0 512 512" xml:space="preserve"><g><path xmlns="http://www.w3.org/2000/svg" d="m187.501 93.75c0-34.47 28.03-62.5 62.5-62.5s62.5 28.03 62.5 62.5v125c0 8.123-1.669 15.839-4.501 22.964l23.134 23.134c7.801-13.672 12.617-29.262 12.617-46.099v-125c0-51.697-42.053-93.75-93.75-93.75-50.52 0-91.547 40.239-93.403 90.313l30.903 30.903z" fill="#ffffff" data-original="#000000" style=""/><path xmlns="http://www.w3.org/2000/svg" d="m406.25 218.75v-62.5h-31.25v62.5c0 25.518-7.757 49.227-20.937 69.029l21.894 21.894c18.746-25.591 30.293-56.738 30.293-90.923z" fill="#ffffff" data-original="#000000" style=""/><path xmlns="http://www.w3.org/2000/svg" d="m500 477.906-477.905-477.905-22.095 22.094 156.25 156.25v40.405c0 51.697 42.053 93.75 93.75 93.75 11.879 0 22.831-3.019 33.232-7.174l24.023 24.023c-17.195 8.997-36.539 14.4-57.255 14.4-68.924 0-125-56.076-125-125v-62.5h-31.25v62.5c0 80.801 61.89 146.7 140.625 154.67v126.581h31.25v-126.58c23.313-2.359 44.828-10.26 63.969-21.732l148.311 148.311 22.095-22.095zm-249.999-196.655c-34.47 0-62.5-28.03-62.5-62.5v-9.155l70.846 70.846c-2.737.42-5.487.809-8.346.809z" fill="#ffffff" data-original="#000000" style=""/></g></svg>
