<svg width="16" height="16" viewBox="0 0 16 16" fill="none" xmlns="http://www.w3.org/2000/svg">
<path fill-rule="evenodd" clip-rule="evenodd" d="M14.6108 14.7592C15.0258 14.3785 15.261 13.8405 15.2587 13.2774L15.2587 11.2875C15.2793 10.2762 14.5411 9.40804 13.5385 9.26661C12.9424 9.18795 12.3629 9.04359 11.8051 8.83547C11.0758 8.5613 10.2518 8.73702 9.69665 9.28604L9.21595 9.76671C9.35762 9.85702 9.50177 9.94388 9.64827 10.0272L8.84734 10.1353L9.21595 9.76673C7.98618 8.98283 6.94265 7.9393 6.15875 6.70954L6.63681 6.23148C7.18846 5.67364 7.36418 4.84971 7.08944 4.11883C6.88188 3.56259 6.73752 2.9831 6.65968 2.3929C6.51835 1.39274 5.66271 0.65689 4.65885 0.66677L2.66541 0.666738C2.10337 0.667267 1.56804 0.903728 1.18955 1.31836C0.811052 1.73299 0.624254 2.28761 0.67478 2.84674C0.905688 5.02193 1.64227 7.10212 2.82589 8.9292C3.89878 10.6177 5.33448 12.0534 7.02786 13.1294C8.84149 14.3056 10.9116 15.042 13.0667 15.2762C13.6396 15.3281 14.1958 15.1399 14.6108 14.7592ZM13.9254 11.2801C13.934 10.9251 13.6875 10.6342 13.3582 10.5877C12.6683 10.4967 11.991 10.328 11.3375 10.0841C11.0939 9.99254 10.8192 10.0511 10.6368 10.2315L9.79015 11.0782C9.57794 11.2904 9.25009 11.3346 8.98921 11.1863C7.21587 10.1779 5.74756 8.70963 4.73921 6.93628C4.59087 6.6754 4.63513 6.34756 4.84734 6.13535L5.69137 5.29133C5.87438 5.10626 5.93295 4.83162 5.84081 4.58649C5.59753 3.93454 5.42879 3.25715 5.33864 2.57339C5.2918 2.24204 5.00659 1.99676 4.66541 2.00009L2.66604 2.00009C2.4789 2.00026 2.30046 2.07908 2.17429 2.21729C2.04813 2.3555 1.98586 2.54038 2.00168 2.71635C2.20945 4.67289 2.87518 6.55297 3.94808 8.20921C4.91915 9.73738 6.21478 11.033 7.74814 12.0074C9.39199 13.0734 11.263 13.739 13.1987 13.9495C13.3857 13.9664 13.5711 13.9037 13.7094 13.7767C13.8478 13.6498 13.9262 13.4705 13.9254 13.2801V11.2801Z" fill="black"/>
<mask id="mask0" mask-type="alpha" maskUnits="userSpaceOnUse" x="0" y="0" width="16" height="16">
<path fill-rule="evenodd" clip-rule="evenodd" d="M14.6108 14.7592C15.0258 14.3785 15.261 13.8405 15.2587 13.2774L15.2587 11.2875C15.2793 10.2762 14.5411 9.40804 13.5385 9.26661C12.9424 9.18795 12.3629 9.04359 11.8051 8.83547C11.0758 8.5613 10.2518 8.73702 9.69665 9.28604L9.21595 9.76671C9.35762 9.85702 9.50177 9.94388 9.64827 10.0272L8.84734 10.1353L9.21595 9.76673C7.98618 8.98283 6.94265 7.9393 6.15875 6.70954L6.63681 6.23148C7.18846 5.67364 7.36418 4.84971 7.08944 4.11883C6.88188 3.56259 6.73752 2.9831 6.65968 2.3929C6.51835 1.39274 5.66271 0.65689 4.65885 0.66677L2.66541 0.666738C2.10337 0.667267 1.56804 0.903728 1.18955 1.31836C0.811052 1.73299 0.624254 2.28761 0.67478 2.84674C0.905688 5.02193 1.64227 7.10212 2.82589 8.9292C3.89878 10.6177 5.33448 12.0534 7.02786 13.1294C8.84149 14.3056 10.9116 15.042 13.0667 15.2762C13.6396 15.3281 14.1958 15.1399 14.6108 14.7592ZM13.9254 11.2801C13.934 10.9251 13.6875 10.6342 13.3582 10.5877C12.6683 10.4967 11.991 10.328 11.3375 10.0841C11.0939 9.99254 10.8192 10.0511 10.6368 10.2315L9.79015 11.0782C9.57794 11.2904 9.25009 11.3346 8.98921 11.1863C7.21587 10.1779 5.74756 8.70963 4.73921 6.93628C4.59087 6.6754 4.63513 6.34756 4.84734 6.13535L5.69137 5.29133C5.87438 5.10626 5.93295 4.83162 5.84081 4.58649C5.59753 3.93454 5.42879 3.25715 5.33864 2.57339C5.2918 2.24204 5.00659 1.99676 4.66541 2.00009L2.66604 2.00009C2.4789 2.00026 2.30046 2.07908 2.17429 2.21729C2.04813 2.3555 1.98586 2.54038 2.00168 2.71635C2.20945 4.67289 2.87518 6.55297 3.94808 8.20921C4.91915 9.73738 6.21478 11.033 7.74814 12.0074C9.39199 13.0734 11.263 13.739 13.1987 13.9495C13.3857 13.9664 13.5711 13.9037 13.7094 13.7767C13.8478 13.6498 13.9262 13.4705 13.9254 13.2801V11.2801Z" fill="white"/>
</mask>
<g mask="url(#mask0)">
<rect width="16" height="16" rx="4" fill="#8D9AAF"/>
</g>
</svg>
