<svg xmlns="http://www.w3.org/2000/svg" width="14" height="16" viewBox="0 0 14 16"><g><g opacity="-1"><path d="M10.484 13.208a20.756 20.756 0 0 1-3.114 2.68.667.667 0 0 1-.74 0 18.95 18.95 0 0 1-.983-.731 20.755 20.755 0 0 1-2.131-1.949C1.535 11.118.333 8.914.333 6.667a6.667 6.667 0 0 1 13.334 0c0 2.247-1.202 4.45-3.183 6.541zm-2.962.906c.68-.542 1.36-1.154 1.994-1.823 1.769-1.867 2.817-3.789 2.817-5.624a5.333 5.333 0 1 0-10.666 0c0 1.835 1.048 3.757 2.817 5.624A19.438 19.438 0 0 0 7 14.515c.162-.12.337-.253.522-.401zM7 9.334A2.667 2.667 0 1 1 7 4a2.667 2.667 0 0 1 0 5.333zM7 8a1.333 1.333 0 1 0 0-2.667A1.333 1.333 0 0 0 7 8z"/></g></g></svg>