<svg width="16" height="16" viewBox="0 0 16 16" fill="none" xmlns="http://www.w3.org/2000/svg">
<path fill-rule="evenodd" clip-rule="evenodd" d="M13.8867 6C13.7442 5.99943 13.6118 5.92694 13.5325 5.81012C13.523 5.76466 13.5088 5.7202 13.4899 5.67749C13.4184 5.51543 13.4527 5.32615 13.5766 5.19951L13.6114 5.16474C13.9867 4.78986 14.1977 4.28082 14.1977 3.75C14.1977 3.21918 13.9867 2.71014 13.6111 2.335C13.2365 1.95997 12.7275 1.74895 12.1967 1.74895C11.6658 1.74895 11.1568 1.95997 10.7817 2.33552L10.7419 2.37526C10.6205 2.49396 10.4312 2.52828 10.2692 2.45676C10.1039 2.38587 10.0007 2.23006 10 2.05734L10 2C10 0.895431 9.10457 0 8 0C6.89543 0 6 0.895431 6 2V2.11333C5.99943 2.25578 5.92694 2.38822 5.81012 2.46747C5.76466 2.47698 5.7202 2.49124 5.67749 2.51009C5.51543 2.58162 5.32615 2.5473 5.19951 2.42342L5.16474 2.3886C4.78986 2.0133 4.28082 1.80228 3.75 1.80228C3.21918 1.80228 2.71014 2.0133 2.335 2.38886C1.95997 2.76347 1.74895 3.27251 1.74895 3.80333C1.74895 4.33415 1.95997 4.8432 2.33552 5.21833L2.37526 5.25807C2.49396 5.37948 2.52828 5.56876 2.45676 5.73082C2.37956 5.93688 2.22229 6.04936 2 6.05333C0.895431 6.05333 0 6.94876 0 8.05333C0 9.1579 0.895431 10.0533 2 10.0533H2.11333C2.28339 10.054 2.4392 10.1572 2.50724 10.316C2.58162 10.4846 2.5473 10.6739 2.42342 10.8005L2.3886 10.8353C2.0133 11.2101 1.80228 11.7192 1.80228 12.25C1.80228 12.7808 2.0133 13.2899 2.38886 13.665C2.76347 14.04 3.27251 14.251 3.80333 14.251C4.33415 14.251 4.8432 14.04 5.21833 13.6645L5.25807 13.6247C5.37948 13.506 5.56876 13.4717 5.73082 13.5432C5.93688 13.6204 6.04936 13.7777 6.05333 14C6.05333 15.1046 6.94876 16 8.05333 16C9.1579 16 10.0533 15.1046 10.0533 14V13.8867C10.054 13.7166 10.1572 13.5608 10.316 13.4928C10.4846 13.4184 10.6739 13.4527 10.8005 13.5766L10.8353 13.6114C11.2101 13.9867 11.7192 14.1977 12.25 14.1977C12.7808 14.1977 13.2899 13.9867 13.665 13.6111C14.04 13.2365 14.251 12.7275 14.251 12.1967C14.251 11.6658 14.04 11.1568 13.6645 10.7817L13.6247 10.7419C13.506 10.6205 13.4717 10.4312 13.5461 10.2626C13.6141 10.1039 13.7699 10.0007 13.9427 10L14 10C15.1046 10 16 9.10457 16 8C16 6.89543 15.1046 6 14 6H13.8867ZM4.26193 3.3714C4.74975 3.84864 5.45648 4.00189 6.08652 3.78103C6.14702 3.77311 6.20629 3.7569 6.26262 3.73276C6.90983 3.45537 7.33052 2.82014 7.33333 2.11599L7.33333 2C7.33333 1.63181 7.63181 1.33333 8 1.33333C8.36819 1.33333 8.66667 1.63181 8.66667 2V2.06C8.66948 2.7668 9.09017 3.40204 9.73738 3.67943C10.3915 3.96818 11.1632 3.82826 11.6795 3.32324L11.7247 3.27807C11.85 3.15262 12.0197 3.08228 12.1967 3.08228C12.3736 3.08228 12.5433 3.15262 12.6683 3.27781C12.794 3.40338 12.8644 3.57306 12.8644 3.75C12.8644 3.92694 12.794 4.09662 12.6689 4.22167L12.6286 4.26193C12.1514 4.74975 11.9981 5.45648 12.219 6.08652C12.2269 6.14702 12.2431 6.20629 12.2672 6.26262C12.5446 6.90983 13.1799 7.33052 13.884 7.33333L14 7.33333C14.3682 7.33333 14.6667 7.63181 14.6667 8C14.6667 8.36819 14.3682 8.66667 14 8.66667H13.94C13.2332 8.66948 12.598 9.09017 12.3234 9.73082C12.0318 10.3915 12.1717 11.1632 12.6768 11.6795L12.7219 11.7247C12.8474 11.85 12.9177 12.0197 12.9177 12.1967C12.9177 12.3736 12.8474 12.5433 12.7222 12.6683C12.5966 12.794 12.4269 12.8644 12.25 12.8644C12.0731 12.8644 11.9034 12.794 11.7783 12.6689L11.7381 12.6286C11.2166 12.1184 10.4449 11.9785 9.78416 12.2701C9.1435 12.5446 8.72281 13.1799 8.72001 13.884L8.72 14C8.72 14.3682 8.42152 14.6667 8.05333 14.6667C7.68514 14.6667 7.38667 14.3682 7.38667 14V13.94C7.36952 13.1992 6.91095 12.558 6.23012 12.3076C5.60845 12.0318 4.83677 12.1717 4.32049 12.6768L4.27526 12.7219C4.14995 12.8474 3.98027 12.9177 3.80333 12.9177C3.62639 12.9177 3.45671 12.8474 3.33167 12.7222C3.20596 12.5966 3.13562 12.4269 3.13562 12.25C3.13562 12.0731 3.20596 11.9034 3.33114 11.7783L3.3714 11.7381C3.88159 11.2166 4.02151 10.4449 3.72991 9.78416C3.45537 9.1435 2.82014 8.72281 2.11599 8.72001L2 8.72C1.63181 8.72 1.33333 8.42152 1.33333 8.05333C1.33333 7.68514 1.63181 7.38667 2 7.38667H2.06C2.80081 7.36952 3.44196 6.91095 3.69236 6.23012C3.96818 5.60845 3.82826 4.83677 3.32324 4.32049L3.27807 4.27526C3.15262 4.14995 3.08228 3.98027 3.08228 3.80333C3.08228 3.62639 3.15262 3.45671 3.27781 3.33167C3.40338 3.20596 3.57306 3.13562 3.75 3.13562C3.92694 3.13562 4.09662 3.20596 4.22167 3.33114L4.26193 3.3714ZM8 10.6667C6.52724 10.6667 5.33333 9.47276 5.33333 8C5.33333 6.52724 6.52724 5.33333 8 5.33333C9.47276 5.33333 10.6667 6.52724 10.6667 8C10.6667 9.47276 9.47276 10.6667 8 10.6667ZM9.33333 8C9.33333 8.73638 8.73638 9.33333 8 9.33333C7.26362 9.33333 6.66667 8.73638 6.66667 8C6.66667 7.26362 7.26362 6.66667 8 6.66667C8.73638 6.66667 9.33333 7.26362 9.33333 8Z" fill="black"/>
<mask id="mask0" mask-type="alpha" maskUnits="userSpaceOnUse" x="0" y="0" width="16" height="16">
<path fill-rule="evenodd" clip-rule="evenodd" d="M13.8867 6C13.7442 5.99943 13.6118 5.92694 13.5325 5.81012C13.523 5.76466 13.5088 5.7202 13.4899 5.67749C13.4184 5.51543 13.4527 5.32615 13.5766 5.19951L13.6114 5.16474C13.9867 4.78986 14.1977 4.28082 14.1977 3.75C14.1977 3.21918 13.9867 2.71014 13.6111 2.335C13.2365 1.95997 12.7275 1.74895 12.1967 1.74895C11.6658 1.74895 11.1568 1.95997 10.7817 2.33552L10.7419 2.37526C10.6205 2.49396 10.4312 2.52828 10.2692 2.45676C10.1039 2.38587 10.0007 2.23006 10 2.05734L10 2C10 0.895431 9.10457 0 8 0C6.89543 0 6 0.895431 6 2V2.11333C5.99943 2.25578 5.92694 2.38822 5.81012 2.46747C5.76466 2.47698 5.7202 2.49124 5.67749 2.51009C5.51543 2.58162 5.32615 2.5473 5.19951 2.42342L5.16474 2.3886C4.78986 2.0133 4.28082 1.80228 3.75 1.80228C3.21918 1.80228 2.71014 2.0133 2.335 2.38886C1.95997 2.76347 1.74895 3.27251 1.74895 3.80333C1.74895 4.33415 1.95997 4.8432 2.33552 5.21833L2.37526 5.25807C2.49396 5.37948 2.52828 5.56876 2.45676 5.73082C2.37956 5.93688 2.22229 6.04936 2 6.05333C0.895431 6.05333 0 6.94876 0 8.05333C0 9.1579 0.895431 10.0533 2 10.0533H2.11333C2.28339 10.054 2.4392 10.1572 2.50724 10.316C2.58162 10.4846 2.5473 10.6739 2.42342 10.8005L2.3886 10.8353C2.0133 11.2101 1.80228 11.7192 1.80228 12.25C1.80228 12.7808 2.0133 13.2899 2.38886 13.665C2.76347 14.04 3.27251 14.251 3.80333 14.251C4.33415 14.251 4.8432 14.04 5.21833 13.6645L5.25807 13.6247C5.37948 13.506 5.56876 13.4717 5.73082 13.5432C5.93688 13.6204 6.04936 13.7777 6.05333 14C6.05333 15.1046 6.94876 16 8.05333 16C9.1579 16 10.0533 15.1046 10.0533 14V13.8867C10.054 13.7166 10.1572 13.5608 10.316 13.4928C10.4846 13.4184 10.6739 13.4527 10.8005 13.5766L10.8353 13.6114C11.2101 13.9867 11.7192 14.1977 12.25 14.1977C12.7808 14.1977 13.2899 13.9867 13.665 13.6111C14.04 13.2365 14.251 12.7275 14.251 12.1967C14.251 11.6658 14.04 11.1568 13.6645 10.7817L13.6247 10.7419C13.506 10.6205 13.4717 10.4312 13.5461 10.2626C13.6141 10.1039 13.7699 10.0007 13.9427 10L14 10C15.1046 10 16 9.10457 16 8C16 6.89543 15.1046 6 14 6H13.8867ZM4.26193 3.3714C4.74975 3.84864 5.45648 4.00189 6.08652 3.78103C6.14702 3.77311 6.20629 3.7569 6.26262 3.73276C6.90983 3.45537 7.33052 2.82014 7.33333 2.11599L7.33333 2C7.33333 1.63181 7.63181 1.33333 8 1.33333C8.36819 1.33333 8.66667 1.63181 8.66667 2V2.06C8.66948 2.7668 9.09017 3.40204 9.73738 3.67943C10.3915 3.96818 11.1632 3.82826 11.6795 3.32324L11.7247 3.27807C11.85 3.15262 12.0197 3.08228 12.1967 3.08228C12.3736 3.08228 12.5433 3.15262 12.6683 3.27781C12.794 3.40338 12.8644 3.57306 12.8644 3.75C12.8644 3.92694 12.794 4.09662 12.6689 4.22167L12.6286 4.26193C12.1514 4.74975 11.9981 5.45648 12.219 6.08652C12.2269 6.14702 12.2431 6.20629 12.2672 6.26262C12.5446 6.90983 13.1799 7.33052 13.884 7.33333L14 7.33333C14.3682 7.33333 14.6667 7.63181 14.6667 8C14.6667 8.36819 14.3682 8.66667 14 8.66667H13.94C13.2332 8.66948 12.598 9.09017 12.3234 9.73082C12.0318 10.3915 12.1717 11.1632 12.6768 11.6795L12.7219 11.7247C12.8474 11.85 12.9177 12.0197 12.9177 12.1967C12.9177 12.3736 12.8474 12.5433 12.7222 12.6683C12.5966 12.794 12.4269 12.8644 12.25 12.8644C12.0731 12.8644 11.9034 12.794 11.7783 12.6689L11.7381 12.6286C11.2166 12.1184 10.4449 11.9785 9.78416 12.2701C9.1435 12.5446 8.72281 13.1799 8.72001 13.884L8.72 14C8.72 14.3682 8.42152 14.6667 8.05333 14.6667C7.68514 14.6667 7.38667 14.3682 7.38667 14V13.94C7.36952 13.1992 6.91095 12.558 6.23012 12.3076C5.60845 12.0318 4.83677 12.1717 4.32049 12.6768L4.27526 12.7219C4.14995 12.8474 3.98027 12.9177 3.80333 12.9177C3.62639 12.9177 3.45671 12.8474 3.33167 12.7222C3.20596 12.5966 3.13562 12.4269 3.13562 12.25C3.13562 12.0731 3.20596 11.9034 3.33114 11.7783L3.3714 11.7381C3.88159 11.2166 4.02151 10.4449 3.72991 9.78416C3.45537 9.1435 2.82014 8.72281 2.11599 8.72001L2 8.72C1.63181 8.72 1.33333 8.42152 1.33333 8.05333C1.33333 7.68514 1.63181 7.38667 2 7.38667H2.06C2.80081 7.36952 3.44196 6.91095 3.69236 6.23012C3.96818 5.60845 3.82826 4.83677 3.32324 4.32049L3.27807 4.27526C3.15262 4.14995 3.08228 3.98027 3.08228 3.80333C3.08228 3.62639 3.15262 3.45671 3.27781 3.33167C3.40338 3.20596 3.57306 3.13562 3.75 3.13562C3.92694 3.13562 4.09662 3.20596 4.22167 3.33114L4.26193 3.3714ZM8 10.6667C6.52724 10.6667 5.33333 9.47276 5.33333 8C5.33333 6.52724 6.52724 5.33333 8 5.33333C9.47276 5.33333 10.6667 6.52724 10.6667 8C10.6667 9.47276 9.47276 10.6667 8 10.6667ZM9.33333 8C9.33333 8.73638 8.73638 9.33333 8 9.33333C7.26362 9.33333 6.66667 8.73638 6.66667 8C6.66667 7.26362 7.26362 6.66667 8 6.66667C8.73638 6.66667 9.33333 7.26362 9.33333 8Z" fill="white"/>
</mask>
<g mask="url(#mask0)">
<rect width="16" height="16" rx="4" fill="#8D9AAF"/>
</g>
</svg>
