<svg width="16" height="16" viewBox="0 0 16 16" fill="none" xmlns="http://www.w3.org/2000/svg">
<mask id="mask0" mask-type="alpha" maskUnits="userSpaceOnUse" x="2" y="2" width="12" height="12">
<path fill-rule="evenodd" clip-rule="evenodd" d="M3.33333 2H12.6667C13.4 2 14 2.6 14 3.33333V12.6667C14 13.4 13.4 14 12.6667 14H3.33333C2.6 14 2 13.4 2 12.6667V3.33333C2 2.6 2.6 2 3.33333 2ZM6.20001 10.86C6.46001 11.12 6.88001 11.12 7.14001 10.86L12.1933 5.8C12.4533 5.54 12.4533 5.12 12.1933 4.86C11.9333 4.6 11.5133 4.6 11.2533 4.86L6.66668 9.44667L4.74668 7.52667C4.48668 7.26667 4.06668 7.26667 3.80668 7.52667C3.68184 7.65122 3.61169 7.82032 3.61169 7.99667C3.61169 8.17301 3.68184 8.34211 3.80668 8.46667L6.20001 10.86Z" fill="white"/>
</mask>
<g mask="url(#mask0)">
<rect width="16" height="16" fill="white"/>
</g>
</svg>
