<svg id="user-plus" xmlns="http://www.w3.org/2000/svg" xmlns:xlink="http://www.w3.org/1999/xlink" width="24" height="24" viewBox="-4 -4 20 20">
  <defs>
    <clipPath id="clip-path">
      <path  d="M10.667,13.333A.667.667,0,0,1,10,12.667V11.333a2,2,0,0,0-2-2H3.334a2,2,0,0,0-2,2v1.333a.667.667,0,0,1-1.333,0V11.333A3.337,3.337,0,0,1,3.334,8H8a3.337,3.337,0,0,1,3.334,3.334v1.333A.667.667,0,0,1,10.667,13.333Zm2.666-4.667A.667.667,0,0,1,12.667,8V6.667H11.333a.667.667,0,1,1,0-1.333h1.333V4A.667.667,0,1,1,14,4V5.333h1.334a.667.667,0,1,1,0,1.333H14V8A.667.667,0,0,1,13.333,8.666Zm-7.667-2A3.333,3.333,0,1,1,9,3.334,3.337,3.337,0,0,1,5.666,6.667Zm0-5.333a2,2,0,1,0,2,2A2,2,0,0,0,5.666,1.333Z" transform="translate(0 0)"/>
    </clipPath>
  </defs>
  <g transform="translate(0 1.333)">
    <path id="Combined_Shape-2" data-name="Combined Shape" d="M10.667,13.333A.667.667,0,0,1,10,12.667V11.333a2,2,0,0,0-2-2H3.334a2,2,0,0,0-2,2v1.333a.667.667,0,0,1-1.333,0V11.333A3.337,3.337,0,0,1,3.334,8H8a3.337,3.337,0,0,1,3.334,3.334v1.333A.667.667,0,0,1,10.667,13.333Zm2.666-4.667A.667.667,0,0,1,12.667,8V6.667H11.333a.667.667,0,1,1,0-1.333h1.333V4A.667.667,0,1,1,14,4V5.333h1.334a.667.667,0,1,1,0,1.333H14V8A.667.667,0,0,1,13.333,8.666Zm-7.667-2A3.333,3.333,0,1,1,9,3.334,3.337,3.337,0,0,1,5.666,6.667Zm0-5.333a2,2,0,1,0,2,2A2,2,0,0,0,5.666,1.333Z" transform="translate(0 0)"/>
    <g clip-path="url(#clip-path)">
      <g id="_Color" data-name="🎨Color" transform="translate(0 -1.333)">
        <rect id="_Icon_Color" data-name="🔹 Icon Color" width="16" height="16" rx="4" fill="#2196f3"/>
      </g>
    </g>
  </g>
</svg>
