<svg width="26" height="26" viewBox="0 0 26 26" fill="none" xmlns="http://www.w3.org/2000/svg">
<path d="M24.5 12.7499H19.2778M21.8889 15.361L21.8889 10.1388" stroke="#363853" stroke-width="2" stroke-linecap="round"/>
<path d="M1 22.0344C1 18.884 3.21595 16.2005 6.2275 15.704L6.49876 15.6593C8.91025 15.2617 11.3675 15.2617 13.779 15.6593L14.0503 15.704C17.0618 16.2005 19.2778 18.884 19.2778 22.0344C19.2778 23.3961 18.2092 24.5 16.8911 24.5H3.38672C2.06857 24.5 1 23.3961 1 22.0344Z" stroke="#363853" stroke-width="2"/>
<path d="M15.4699 6.14063C15.4699 8.97971 13.0832 11.2813 10.1389 11.2813C7.19468 11.2813 4.8079 8.97971 4.8079 6.14063C4.8079 3.30154 7.19468 1 10.1389 1C13.0832 1 15.4699 3.30154 15.4699 6.14063Z" stroke="#363853" stroke-width="2"/>
</svg>
