<svg id="UzCard2" xmlns="http://www.w3.org/2000/svg" width="40.384" height="24.93" viewBox="0 0 40.384 24.93">
  <path id="path4" d="M40.384,0V8.523A1.117,1.117,0,0,1,39.267,9.64H1.116A1.117,1.117,0,0,1,0,8.523V0Z" transform="translate(0 15.291)" fill="#72b73c"/>
  <path id="path6" d="M1.116,0h38.14a1.117,1.117,0,0,1,1.116,1.116V16.965L28.488,19.593l-8.279.884-9.151-.442L0,18.081V1.116A1.117,1.117,0,0,1,1.116,0Z" fill="#004084"/>
  <path id="path8" d="M40.384,0C27.512,5.43,13.953,5.349,0,2.1v.674a79.386,79.386,0,0,0,40.372-.163V0Z" transform="translate(0 15.523)" fill="#fff"/>
  <g id="g10" transform="translate(3.837 8.953)">
    <path id="path12" d="M.93,0H5.419L5.267,1.116,2.4,4.233l1.988-.012a2.522,2.522,0,0,0,.593,1.326H0l.163-.988L3.093,1.43.721,1.407Z" transform="translate(5.395 0.14)" fill="#fff"/>
    <path id="path14" d="M5.1,4.907a3.417,3.417,0,0,1-1.012.628,3.9,3.9,0,0,1-1.372.221,3.892,3.892,0,0,1-1.57-.267,1.929,1.929,0,0,1-.919-.93,2.659,2.659,0,0,1-.174-1.7A3.275,3.275,0,0,1,1.279.767,3.5,3.5,0,0,1,3.581,0,2.794,2.794,0,0,1,5.291.5,1.4,1.4,0,0,1,5.57.744L4.686,2a2.118,2.118,0,0,0-1.14-.488,1.461,1.461,0,0,0-1.151.3,1.631,1.631,0,0,0-.616,1.035,1.3,1.3,0,0,0,.093.837.9.9,0,0,0,.465.442,2.051,2.051,0,0,0,.791.14,2.051,2.051,0,0,0,.7-.163,4.682,4.682,0,0,0,.709-.419L5.1,4.907Z" transform="translate(10.663 0.035)" fill="#fff"/>
    <path id="path16" d="M1.6,5.559H0L2.7,0H4.419l1.1,5.557H3.884l-.1-.744H1.942L1.6,5.558ZM3.337,1.442h0L2.465,3.569H3.628L3.337,1.442Z" transform="translate(15.674 0.14)" fill="#fff"/>
    <path id="path18" d="M1.616,5.559H0L.791,0H3.465c1.35,0,1.712.679,1.808,1.084A2.2,2.2,0,0,1,4.151,3.349c.07.154.69,1.535.9,2.208H3.732c-.6,0-.8-.714-.951-1.236-.075-.264-.133-.473-.223-.52H1.942L1.616,5.558ZM2.5,1.325h-.19L2.151,2.465c.136,0,.234.006.32.011.066,0,.121.007.18.007A1.891,1.891,0,0,0,3.07,2.43a.55.55,0,0,0,.291-.175.65.65,0,0,0,.151-.325.5.5,0,0,0-.1-.418A1.442,1.442,0,0,0,2.5,1.325Z" transform="translate(21.616 0.14)" fill="#fff"/>
    <path id="path20" d="M2.453,5.6H0L.837,0H3.384A2.052,2.052,0,0,1,5.435,1.409,3.28,3.28,0,0,1,4.384,4.9,3.183,3.183,0,0,1,2.453,5.6Zm-.14-4.29h0L1.86,4.2h.418c.862,0,1.353-.468,1.5-1.43a1.364,1.364,0,0,0-.219-1.125,1.031,1.031,0,0,0-.816-.329h-.43Z" transform="translate(27.163 0.093)" fill="#fff"/>
    <path id="path22" d="M1.872,0H.64A.633.633,0,0,0,0,.616V4.965a.633.633,0,0,0,.64.616H2.651C2,5.174,1.628,4.953,1.465,4.384a5.846,5.846,0,0,1,.093-2.349C1.663,1.372,1.767.674,1.872,0Z" transform="translate(0.023 0.209)" fill="#fff"/>
    <path id="path24" d="M.5,0H3.347l-.64,4.872H1.033A1.009,1.009,0,0,1,.009,3.7L.5,0Z" transform="translate(2.165 0.198)" fill="#e84041"/>
  </g>
</svg>
