<svg xmlns="http://www.w3.org/2000/svg" xmlns:xlink="http://www.w3.org/1999/xlink" width="44.219" height="14.395" viewBox="0 0 44.219 14.395">
  <defs>
    <linearGradient id="linear-gradient" x1="0.839" y1="-0.972" x2="0.142" y2="2.043" gradientUnits="objectBoundingBox">
      <stop offset="0" stop-color="#222357"/>
      <stop offset="1" stop-color="#254aa5"/>
    </linearGradient>
  </defs>
  <g id="Visa_Copy_Color" data-name="Visa Copy_Color" transform="translate(0 -1)">
    <g id="path10273" transform="translate(0 15.88)">
      <path id="path-2" d="M-28.905,14.395c3.534,0,6.017-1.892,6.036-4.6C-22.844,7.787-24.641,6.669-26,6c-1.392-.682-1.859-1.119-1.854-1.731.011-.918,1.082-1.346,2.139-1.363h.139a7.332,7.332,0,0,1,3.462.848l.068.032.647-3.05A10.671,10.671,0,0,0-25.368,0c-3.766,0-6.207,1.87-6.221,4.763-.009,2.2,1.794,3.152,3.243,3.918.954.505,1.779.941,1.765,1.6-.011.447-.414,1.021-1.517,1.165a4.691,4.691,0,0,1-.615.037,6.947,6.947,0,0,1-2.908-.658l-.628,2.951A9.489,9.489,0,0,0-28.905,14.395Zm-12.43-.254h3.052a1.625,1.625,0,0,0,1.52-1.021L-31.4.217h-3.749L-35.9,2.3h-4.582L-40.914.217h-3.3l2.883,13.923Zm4.409-8.99-1.882,5.228L-39.89,5.151Zm15.032,8.99h3.572L-15.367.217H-18.94L-21.894,14.14Zm5.106,0h3.752l3.719-9.477,1.5,8.058a1.675,1.675,0,0,0,1.648,1.419h6.08l.085-.4a14.953,14.953,0,0,1-3.525-1.184,1.52,1.52,0,0,1-.849-1.223L-7.223.217H-11l-5.788,13.923Z" transform="translate(0 -0.486) rotate(-180)" fill="url(#linear-gradient)"/>
    </g>
  </g>
</svg>
