<svg width="16" height="16" viewBox="0 0 16 16" fill="none" xmlns="http://www.w3.org/2000/svg">
	<path d="M10 7.33331V3.33331L8 1.33331L6 3.33331V4.66665H2V14H14V7.33331H10ZM4.66667 12.6666H3.33333V11.3333H4.66667V12.6666ZM4.66667 9.99998H3.33333V8.66665H4.66667V9.99998ZM4.66667 7.33331H3.33333V5.99998H4.66667V7.33331ZM8.66667 12.6666H7.33333V11.3333H8.66667V12.6666ZM8.66667 9.99998H7.33333V8.66665H8.66667V9.99998ZM8.66667 7.33331H7.33333V5.99998H8.66667V7.33331ZM8.66667 4.66665H7.33333V3.33331H8.66667V4.66665ZM12.6667 12.6666H11.3333V11.3333H12.6667V12.6666ZM12.6667 9.99998H11.3333V8.66665H12.6667V9.99998Z" />
</svg>