<svg width="16" height="16" viewBox="0 0 16 16" fill="none" xmlns="http://www.w3.org/2000/svg">
                    <path d="M8.66683 1.33331V6.66665H14.0002C14.0002 3.71998 11.6135 1.33331 8.66683 1.33331ZM10.0002 5.33331V2.89331C11.1335 3.29331 12.0335 4.19331 12.4402 5.33331H10.0002ZM4.2935 7.33331L3.66016 5.99998H1.3335V7.33331H2.8135C2.8135 7.33331 4.0735 10.0466 4.22683 10.28C3.4935 10.6733 3.00016 11.4466 3.00016 12.3333C3.00016 13.62 4.04683 14.6666 5.3335 14.6666C6.50683 14.6666 7.48016 13.8 7.64016 12.6666H9.02683C9.18683 13.8 10.1602 14.6666 11.3335 14.6666C12.6202 14.6666 13.6668 13.62 13.6668 12.3333C13.6668 11.64 13.3602 11.02 12.8802 10.5933C13.5802 9.69331 14.0002 8.55998 14.0002 7.33331H4.2935ZM5.3335 13.3333C4.78016 13.3333 4.3335 12.8866 4.3335 12.3333C4.3335 11.78 4.78016 11.3333 5.3335 11.3333C5.88683 11.3333 6.3335 11.78 6.3335 12.3333C6.3335 12.8866 5.88683 13.3333 5.3335 13.3333ZM11.3335 13.3333C10.7802 13.3333 10.3335 12.8866 10.3335 12.3333C10.3335 11.78 10.7802 11.3333 11.3335 11.3333C11.8868 11.3333 12.3335 11.78 12.3335 12.3333C12.3335 12.8866 11.8868 13.3333 11.3335 13.3333ZM11.8268 9.77331L11.6335 10.02C11.5402 10.0066 11.4335 9.99998 11.3335 9.99998C10.4068 9.99998 9.60016 10.5466 9.22683 11.3333H7.44016C7.10683 10.64 6.44016 10.1333 5.6535 10.02L5.36016 9.57331C5.2935 9.45998 5.1335 9.11331 4.9135 8.66665H12.4402C12.3002 9.05998 12.0935 9.43331 11.8268 9.77331Z" />
                  </svg>