<svg width="16" height="16" viewBox="0 0 16 16" fill="none" xmlns="http://www.w3.org/2000/svg">
    <path fill-rule="evenodd" clip-rule="evenodd" d="M11.6007 1.33331C10.4511 1.33331 9.34857 1.79014 8.53585 2.60324L8.3007 2.83839L8.06543 2.60313C6.37283 0.910518 3.62857 0.910518 1.93596 2.60313C0.243352 4.29573 0.243352 7.03999 1.93596 8.7326L7.82929 14.6259C8.08964 14.8863 8.51175 14.8863 8.7721 14.6259L14.6654 8.7326C15.4784 7.92 15.9352 6.81749 15.9352 5.66786C15.9352 4.51824 15.4784 3.41573 14.6655 2.60324C13.8528 1.79014 12.7503 1.33331 11.6007 1.33331ZM13.016 8.49646L8.3007 13.2117L2.87877 7.78979C1.70686 6.61788 1.70686 4.71784 2.87877 3.54593C4.05068 2.37403 5.95072 2.37403 7.12263 3.54593L7.82929 4.2526C8.08964 4.51295 8.51175 4.51295 8.7721 4.2526L9.47877 3.54593C10.0415 2.98291 10.8048 2.66665 11.6007 2.66665C12.3966 2.66665 13.1599 2.98291 13.7227 3.54605C14.2857 4.10869 14.6019 4.87197 14.6019 5.66786C14.6019 6.46376 14.2857 7.22703 13.7227 7.78968L13.016 8.49646Z" fill="black" />
    <mask id="mask0" mask-type="alpha" maskUnits="userSpaceOnUse" x="0" y="1" width="16" height="14">
      <path fill-rule="evenodd" clip-rule="evenodd" d="M11.6007 1.33331C10.4511 1.33331 9.34857 1.79014 8.53585 2.60324L8.3007 2.83839L8.06543 2.60313C6.37283 0.910518 3.62857 0.910518 1.93596 2.60313C0.243352 4.29573 0.243352 7.03999 1.93596 8.7326L7.82929 14.6259C8.08964 14.8863 8.51175 14.8863 8.7721 14.6259L14.6654 8.7326C15.4784 7.92 15.9352 6.81749 15.9352 5.66786C15.9352 4.51824 15.4784 3.41573 14.6655 2.60324C13.8528 1.79014 12.7503 1.33331 11.6007 1.33331ZM13.016 8.49646L8.3007 13.2117L2.87877 7.78979C1.70686 6.61788 1.70686 4.71784 2.87877 3.54593C4.05068 2.37403 5.95072 2.37403 7.12263 3.54593L7.82929 4.2526C8.08964 4.51295 8.51175 4.51295 8.7721 4.2526L9.47877 3.54593C10.0415 2.98291 10.8048 2.66665 11.6007 2.66665C12.3966 2.66665 13.1599 2.98291 13.7227 3.54605C14.2857 4.10869 14.6019 4.87197 14.6019 5.66786C14.6019 6.46376 14.2857 7.22703 13.7227 7.78968L13.016 8.49646Z" fill="white" />
    </mask>
    <g mask="url(#mask0)">
      <rect width="16" height="16" />
    </g>
  </svg>