<svg width="16" height="16" viewBox="0 0 16 16" fill="none" xmlns="http://www.w3.org/2000/svg">
    <path d="M1.99984 4.00002H13.9998V2.66669H1.99984C1.2665 2.66669 0.666504 3.26669 0.666504 4.00002V12C0.666504 12.7334 1.2665 13.3334 1.99984 13.3334H4.6665V12H1.99984V4.00002ZM8.6665 8.00002H5.99984V9.18669C5.59317 9.55335 5.33317 10.0734 5.33317 10.6667C5.33317 11.26 5.59317 11.78 5.99984 12.1467V13.3334H8.6665V12.1467C9.07317 11.78 9.33317 11.2534 9.33317 10.6667C9.33317 10.08 9.07317 9.55335 8.6665 9.18669V8.00002ZM7.33317 11.6667C6.77984 11.6667 6.33317 11.22 6.33317 10.6667C6.33317 10.1134 6.77984 9.66669 7.33317 9.66669C7.8865 9.66669 8.33317 10.1134 8.33317 10.6667C8.33317 11.22 7.8865 11.6667 7.33317 11.6667ZM14.6665 5.33335H10.6665C10.3332 5.33335 9.99984 5.66669 9.99984 6.00002V12.6667C9.99984 13 10.3332 13.3334 10.6665 13.3334H14.6665C14.9998 13.3334 15.3332 13 15.3332 12.6667V6.00002C15.3332 5.66669 14.9998 5.33335 14.6665 5.33335ZM13.9998 12H11.3332V6.66669H13.9998V12Z" />
  </svg>