<svg width="16" height="16" viewBox="0 0 16 16" fill="none" xmlns="http://www.w3.org/2000/svg">
    <path d="M13.3599 9.55309L13.0064 9.90665L13.3599 10.2602L13.9597 10.86L12.8866 11.9331L12.5331 12.2866L12.8866 12.6402L13.4864 13.24L13.2402 13.4862L12.6404 12.8864L12.2868 12.5329L11.9333 12.8864L10.8602 13.9595L10.2604 13.3598L9.90683 13.0062L9.55328 13.3598L8.9535 13.9595L8.70727 13.7133L10.7337 11.6869L11.0873 11.3333L10.7337 10.9798L5.02038 5.26643L4.66683 4.91287L4.31328 5.26643L2.28683 7.29287L2.0406 7.04665L2.64038 6.44687L2.99394 6.09331L2.64038 5.73976L2.0406 5.13998L3.11372 4.06687L3.46727 3.71331L3.11372 3.35976L2.51394 2.75998L2.76016 2.51375L3.35994 3.11353L3.7135 3.46709L4.06705 3.11353L5.14016 2.04042L5.73994 2.6402L6.0935 2.99375L6.44705 2.6402L7.04683 2.04042L7.29306 2.28665L5.26661 4.31309L4.91306 4.66665L5.26661 5.0202L10.9799 10.7335L11.3335 11.0871L11.687 10.7335L13.7135 8.70709L13.9597 8.95331L13.3599 9.55309Z" stroke="#8D9AAF" />
  </svg>