<svg xmlns="http://www.w3.org/2000/svg" width="13.333" height="13.333" viewBox="0 0 13.333 13.333">
    <path d="M12.667,13.333H8a.667.667,0,0,1-.667-.667V8A.667.667,0,0,1,8,7.333h4.667A.667.667,0,0,1,13.333,8v4.667A.667.667,0,0,1,12.667,13.333Zm-4-4.667V12H12V8.666ZM5.333,13.333H.667A.667.667,0,0,1,0,12.667V8a.667.667,0,0,1,.667-.667H5.333A.667.667,0,0,1,6,8v4.667A.667.667,0,0,1,5.333,13.333Zm-4-4.667V12H4.667V8.666ZM12.667,6H8a.667.667,0,0,1-.667-.667V.667A.667.667,0,0,1,8,0h4.667a.667.667,0,0,1,.667.667V5.333A.667.667,0,0,1,12.667,6Zm-4-4.667V4.667H12V1.333ZM5.333,6H.667A.667.667,0,0,1,0,5.333V.667A.667.667,0,0,1,.667,0H5.333A.667.667,0,0,1,6,.667V5.333A.667.667,0,0,1,5.333,6Zm-4-4.667V4.667H4.667V1.333Z" />
  </svg>