<svg width="16" height="16" viewBox="0 0 16 16" fill="none" xmlns="http://www.w3.org/2000/svg">
                    <path d="M12.6133 3.34002C12.48 2.94669 12.1067 2.66669 11.6667 2.66669H4.33333C3.89333 2.66669 3.52667 2.94669 3.38667 3.34002L2 7.33335V12.6667C2 13.0334 2.3 13.3334 2.66667 13.3334H3.33333C3.7 13.3334 4 13.0334 4 12.6667V12H12V12.6667C12 13.0334 12.3 13.3334 12.6667 13.3334H13.3333C13.7 13.3334 14 13.0334 14 12.6667V7.33335L12.6133 3.34002ZM4.56667 4.00002H11.4267L12.12 6.00002H3.87333L4.56667 4.00002ZM12.6667 10.6667H3.33333V7.56002L3.41333 7.33335H12.5933L12.6667 7.56002V10.6667Z" />
                    <path d="M5 10C5.55228 10 6 9.55228 6 9C6 8.44772 5.55228 8 5 8C4.44772 8 4 8.44772 4 9C4 9.55228 4.44772 10 5 10Z" />
                    <path d="M11 10C11.5523 10 12 9.55228 12 9C12 8.44772 11.5523 8 11 8C10.4477 8 10 8.44772 10 9C10 9.55228 10.4477 10 11 10Z" />
                  </svg>