<svg width="16" height="16" viewBox="0 0 16 16" fill="none" xmlns="http://www.w3.org/2000/svg">
    <path d="M15.0733 12.66L9.01997 6.60669C9.63997 5.04669 9.31997 3.20669 8.05997 1.94002C6.52664 0.406688 4.13997 0.266688 2.43997 1.50669L4.99997 4.07335L4.05331 5.01335L1.49997 2.46002C0.259974 4.15335 0.399974 6.54669 1.93331 8.07335C3.17331 9.31335 4.97997 9.64002 6.52664 9.06002L12.6 15.1334C12.86 15.3934 13.28 15.3934 13.54 15.1334L15.0733 13.6C15.34 13.3467 15.34 12.9267 15.0733 12.66ZM13.0733 13.7267L6.76664 7.42002C6.35997 7.72002 5.90664 7.90002 5.43331 7.96669C4.52664 8.10002 3.57331 7.82669 2.87997 7.13335C2.24664 6.50669 1.95331 5.66669 1.99997 4.84002L4.05997 6.90002L6.88664 4.07335L4.82664 2.01335C5.65331 1.96669 6.48664 2.26002 7.11998 2.88669C7.83997 3.60669 8.11331 4.60002 7.94664 5.52669C7.86664 6.00002 7.66664 6.44002 7.35997 6.83335L13.66 13.1334L13.0733 13.7267Z" />
  </svg>