<svg width="16" height="16" viewBox="0 0 16 16" fill="none" xmlns="http://www.w3.org/2000/svg">
    <path d="M4.16683 6.33335C4.16683 6.97769 3.64449 7.50002 3.00016 7.50002C2.35583 7.50002 1.8335 6.97769 1.8335 6.33335C1.8335 5.68902 2.35583 5.16669 3.00016 5.16669C3.64449 5.16669 4.16683 5.68902 4.16683 6.33335Z" stroke="#8D9AAF" />
    <path d="M7.16683 3.66667C7.16683 4.311 6.64449 4.83333 6.00016 4.83333C5.35583 4.83333 4.8335 4.311 4.8335 3.66667C4.8335 3.02233 5.35583 2.5 6.00016 2.5C6.64449 2.5 7.16683 3.02233 7.16683 3.66667Z" stroke="#8D9AAF" />
    <path d="M11.1668 3.66667C11.1668 4.311 10.6445 4.83333 10.0002 4.83333C9.35583 4.83333 8.8335 4.311 8.8335 3.66667C8.8335 3.02233 9.35583 2.5 10.0002 2.5C10.6445 2.5 11.1668 3.02233 11.1668 3.66667Z" stroke="#8D9AAF" />
    <path d="M14.1668 6.33335C14.1668 6.97769 13.6445 7.50002 13.0002 7.50002C12.3558 7.50002 11.8335 6.97769 11.8335 6.33335C11.8335 5.68902 12.3558 5.16669 13.0002 5.16669C13.6445 5.16669 14.1668 5.68902 14.1668 6.33335Z" stroke="#8D9AAF" />
    <path d="M10.9896 10.3934L11.0089 10.416L11.0299 10.437C11.084 10.491 11.1374 10.5442 11.1901 10.5966C11.5895 10.9937 11.9479 11.3502 12.2137 11.7439C12.4879 12.15 12.6156 12.5298 12.5652 12.9469C12.4176 13.4164 12.1024 13.7979 11.6055 13.9163C11.5968 13.917 11.5731 13.9184 11.5296 13.9176C11.4648 13.9165 11.3793 13.911 11.269 13.9003C11.081 13.8822 10.858 13.8531 10.5919 13.8184C10.5409 13.8118 10.4883 13.8049 10.4342 13.7979C9.77672 13.7127 8.933 13.61 8.05359 13.61H7.93359C7.05339 13.61 6.2089 13.7145 5.5521 13.8005C5.50457 13.8067 5.45831 13.8128 5.41329 13.8187C5.13905 13.8548 4.91061 13.8848 4.71915 13.9031C4.4945 13.9244 4.40548 13.9194 4.39278 13.9187C4.39237 13.9187 4.39205 13.9187 4.3918 13.9187C3.88734 13.8028 3.57049 13.4238 3.42258 12.9494C3.37462 12.5359 3.50308 12.1572 3.77856 11.7508C4.04506 11.3577 4.40346 11.0013 4.80227 10.6047C4.85548 10.5518 4.9094 10.4982 4.96392 10.4437L4.98343 10.4242L5.00146 10.4033C5.37923 9.96538 5.71793 9.5662 6.06428 9.158C6.2562 8.93181 6.45047 8.70284 6.65504 8.46299C6.94449 8.13089 7.22307 7.89666 7.49683 7.80279L7.49688 7.80291L7.5099 7.79818C7.54537 7.78528 7.57789 7.77667 7.60776 7.77124L7.60776 7.77127L7.61523 7.76984C7.70654 7.75228 7.81433 7.75 8.00026 7.75C8.18071 7.75 8.29772 7.7516 8.39339 7.76595C8.42124 7.77142 8.45135 7.77966 8.48395 7.79151L8.48391 7.79163L8.49701 7.79613C8.77381 7.89103 9.06028 8.12935 9.33599 8.45302L9.33598 8.45303L9.33906 8.45659C9.7134 8.89049 10.0447 9.28092 10.3879 9.68546C10.5814 9.91351 10.7787 10.146 10.9896 10.3934Z" stroke="#8D9AAF" stroke-width="1.5" />
  </svg>